<?xml version="1.0" encoding="UTF-8"?>
<svg id="Layer_1" xmlns="http://www.w3.org/2000/svg" width="50mm" height="50mm"
    viewBox="0 0 95.9125 95.9125">
    <defs>
        <style>.cls-1{fill:#fff;}</style>
    </defs>
    <g>
        <path class="cls-1"
            d="M63.9686,38.8741c1.894-2.1407,1.692-5.4418-.4487-7.3357-2.1407-1.894-5.4418-1.692-7.3357,.4487l-24.4178,27.5993c-1.894,2.1407-1.692,5.4418,.4487,7.3358s5.4418,1.692,7.3357-.4487l24.4178-27.5993Z" />
        <g>
            <path class="cls-1"
                d="M79.885,57.5104c-.0092,.0357-.0137,.0714-.022,.1072-3.713,14.2024-16.6293,24.6834-31.9955,24.6834s-28.2819-10.4804-31.9952-24.6823c-.0084-.0361-.0129-.0722-.0222-.1082-.6533-2.5261-3.2307-4.0443-5.7568-3.391-2.5261,.6533-4.0443,3.2307-3.391,5.7568l-.0097,.0025c4.7267,18.3295,21.3693,31.8711,41.175,31.8711s36.4483-13.5416,41.175-31.8711l-.0096-.0025h0c.6533-2.5261-.8649-5.1035-3.391-5.7568-2.5261-.6533-5.1035,.8649-5.7568,3.391Z" />
            <path class="cls-1"
                d="M6.6924,38.5815l.0097,.0025h0c-.6533,2.5261,.8649,5.1035,3.391,5.7568,2.5261,.6533,5.1035-.8649,5.7568-3.391,.0093-.0361,.0138-.0721,.0222-.1082,3.7134-14.2019,16.6294-24.6823,31.9952-24.6823s28.2825,10.481,31.9955,24.6834c.0084,.0357,.0128,.0715,.022,.1072,.6533,2.5261,3.2307,4.0443,5.7568,3.391,2.5261-.6533,4.0443-3.2307,3.391-5.7568l.0096-.0025c-4.7267-18.3295-21.3693-31.8711-41.175-31.8711S11.419,20.252,6.6924,38.5815Z" />
        </g>
    </g>
</svg>